<mxfile host="app.diagrams.net" modified="2023-08-05T12:57:53.119Z" agent="Mozilla/5.0 (Macintosh; Intel Mac OS X 10_15_7) AppleWebKit/537.36 (KHTML, like Gecko) Chrome/115.0.0.0 Safari/537.36" etag="wVU-47qk1HzIbpy4zKsr" version="21.5.2" type="github">
  <diagram name="Страница 1" id="a_bSZEs2M-ZorU_4HokV">
    <mxGraphModel dx="3086" dy="1269" grid="1" gridSize="10" guides="1" tooltips="1" connect="1" arrows="1" fold="1" page="1" pageScale="1" pageWidth="827" pageHeight="1169" math="0" shadow="0">
      <root>
        <mxCell id="0" />
        <mxCell id="1" parent="0" />
        <mxCell id="9Bqs3EJ7gLQhbPDYS--e-8" value="" style="edgeStyle=orthogonalEdgeStyle;rounded=0;orthogonalLoop=1;jettySize=auto;html=1;" parent="1" source="9Bqs3EJ7gLQhbPDYS--e-3" target="9Bqs3EJ7gLQhbPDYS--e-7" edge="1">
          <mxGeometry relative="1" as="geometry" />
        </mxCell>
        <mxCell id="9Bqs3EJ7gLQhbPDYS--e-9" value="NO" style="edgeLabel;html=1;align=center;verticalAlign=middle;resizable=0;points=[];" parent="9Bqs3EJ7gLQhbPDYS--e-8" vertex="1" connectable="0">
          <mxGeometry x="-0.3" y="3" relative="1" as="geometry">
            <mxPoint x="15" y="2" as="offset" />
          </mxGeometry>
        </mxCell>
        <mxCell id="9Bqs3EJ7gLQhbPDYS--e-50" value="" style="edgeStyle=orthogonalEdgeStyle;rounded=0;orthogonalLoop=1;jettySize=auto;html=1;" parent="1" source="9Bqs3EJ7gLQhbPDYS--e-3" target="9Bqs3EJ7gLQhbPDYS--e-47" edge="1">
          <mxGeometry relative="1" as="geometry" />
        </mxCell>
        <mxCell id="9Bqs3EJ7gLQhbPDYS--e-3" value="isDelivery" style="rhombus;whiteSpace=wrap;html=1;" parent="1" vertex="1">
          <mxGeometry x="-532.5" y="340" width="205" height="105" as="geometry" />
        </mxCell>
        <mxCell id="9Bqs3EJ7gLQhbPDYS--e-6" value="" style="endArrow=classic;html=1;rounded=0;entryX=0.5;entryY=0;entryDx=0;entryDy=0;" parent="1" target="9Bqs3EJ7gLQhbPDYS--e-3" edge="1">
          <mxGeometry width="50" height="50" relative="1" as="geometry">
            <mxPoint x="-430" y="290" as="sourcePoint" />
            <mxPoint x="-430" y="390" as="targetPoint" />
          </mxGeometry>
        </mxCell>
        <mxCell id="9Bqs3EJ7gLQhbPDYS--e-28" value="" style="edgeStyle=orthogonalEdgeStyle;rounded=0;orthogonalLoop=1;jettySize=auto;html=1;" parent="1" source="9Bqs3EJ7gLQhbPDYS--e-7" target="9Bqs3EJ7gLQhbPDYS--e-27" edge="1">
          <mxGeometry relative="1" as="geometry" />
        </mxCell>
        <mxCell id="9Bqs3EJ7gLQhbPDYS--e-29" value="NO" style="edgeLabel;html=1;align=center;verticalAlign=middle;resizable=0;points=[];" parent="9Bqs3EJ7gLQhbPDYS--e-28" vertex="1" connectable="0">
          <mxGeometry x="-0.6122" y="3" relative="1" as="geometry">
            <mxPoint x="20" y="2" as="offset" />
          </mxGeometry>
        </mxCell>
        <mxCell id="9Bqs3EJ7gLQhbPDYS--e-36" value="" style="edgeStyle=orthogonalEdgeStyle;rounded=0;orthogonalLoop=1;jettySize=auto;html=1;" parent="1" source="9Bqs3EJ7gLQhbPDYS--e-7" target="9Bqs3EJ7gLQhbPDYS--e-26" edge="1">
          <mxGeometry relative="1" as="geometry" />
        </mxCell>
        <mxCell id="9Bqs3EJ7gLQhbPDYS--e-38" value="YES" style="edgeLabel;html=1;align=center;verticalAlign=middle;resizable=0;points=[];" parent="9Bqs3EJ7gLQhbPDYS--e-36" vertex="1" connectable="0">
          <mxGeometry x="-0.0851" y="2" relative="1" as="geometry">
            <mxPoint y="1" as="offset" />
          </mxGeometry>
        </mxCell>
        <mxCell id="9Bqs3EJ7gLQhbPDYS--e-7" value="Обязательно" style="rhombus;whiteSpace=wrap;html=1;" parent="1" vertex="1">
          <mxGeometry x="-210" y="352.5" width="119" height="80" as="geometry" />
        </mxCell>
        <mxCell id="9Bqs3EJ7gLQhbPDYS--e-43" value="" style="edgeStyle=orthogonalEdgeStyle;rounded=0;orthogonalLoop=1;jettySize=auto;html=1;" parent="1" source="9Bqs3EJ7gLQhbPDYS--e-10" edge="1">
          <mxGeometry relative="1" as="geometry">
            <mxPoint x="-720" y="510" as="targetPoint" />
          </mxGeometry>
        </mxCell>
        <mxCell id="9Bqs3EJ7gLQhbPDYS--e-46" value="YES" style="edgeLabel;html=1;align=center;verticalAlign=middle;resizable=0;points=[];" parent="9Bqs3EJ7gLQhbPDYS--e-43" vertex="1" connectable="0">
          <mxGeometry x="-0.1355" relative="1" as="geometry">
            <mxPoint y="1" as="offset" />
          </mxGeometry>
        </mxCell>
        <mxCell id="9Bqs3EJ7gLQhbPDYS--e-10" value="Обязательно" style="rhombus;whiteSpace=wrap;html=1;" parent="1" vertex="1">
          <mxGeometry x="-780" y="352.5" width="120" height="80" as="geometry" />
        </mxCell>
        <mxCell id="9Bqs3EJ7gLQhbPDYS--e-21" value="&lt;ol&gt;&lt;li style=&quot;border-color: var(--border-color);&quot;&gt;is_required_on_success&lt;br style=&quot;border-color: var(--border-color);&quot;&gt;&amp;amp;&amp;amp; с оплатой за ТОВАРЫ&lt;br style=&quot;border-color: var(--border-color);&quot;&gt;&amp;amp;&amp;amp; с оплатой за ТОВАРЫ &amp;gt;= required_min_sum&lt;br&gt;(автоматически становится невыполненным &lt;br&gt;и этот статус поменять нельзя)&lt;/li&gt;&lt;/ol&gt;" style="rounded=1;whiteSpace=wrap;html=1;align=left;" parent="1" vertex="1">
          <mxGeometry x="-1300" y="513" width="370" height="94" as="geometry" />
        </mxCell>
        <mxCell id="9Bqs3EJ7gLQhbPDYS--e-68" value="" style="edgeStyle=orthogonalEdgeStyle;rounded=0;orthogonalLoop=1;jettySize=auto;html=1;" parent="1" source="9Bqs3EJ7gLQhbPDYS--e-25" target="9Bqs3EJ7gLQhbPDYS--e-47" edge="1">
          <mxGeometry relative="1" as="geometry" />
        </mxCell>
        <mxCell id="9Bqs3EJ7gLQhbPDYS--e-25" value="&lt;ol&gt;&lt;li&gt;is_required_on_success &lt;br&gt;&amp;amp;&amp;amp;&amp;nbsp;is_partial_delivering &lt;br&gt;&amp;amp;&amp;amp; shipments.checked.length&lt;br&gt;&lt;/li&gt;&lt;li&gt;is_required_on_success &lt;br&gt;&amp;amp;&amp;amp; с оплатой за ТОВАРЫ&lt;br&gt;&amp;amp;&amp;amp; (с оплатой за товары &amp;lt;&amp;nbsp;required_min_sum)&lt;br&gt;&amp;amp;&amp;amp; shipments.checked.length&lt;br&gt;&amp;amp;&amp;amp; сумма за все вырученные товары &amp;lt; required_min_sum&lt;/li&gt;&lt;li style=&quot;border-color: var(--border-color);&quot;&gt;is_required_on_success &amp;amp;&amp;amp; shipments.checked.length&lt;/li&gt;&lt;li&gt;(1 пункт &amp;amp;&amp;amp; !&amp;nbsp;required_min_sum) &amp;amp;&amp;amp; 3 пункт&lt;/li&gt;&lt;li&gt;(is_required_on_cancel &lt;br&gt;&amp;nbsp; &amp;nbsp; &amp;nbsp;&amp;amp;&amp;amp;((is_required_on_success &amp;amp;&amp;amp; paymentShipments &amp;lt; required_min_sum) &lt;br&gt;&amp;nbsp; &amp;nbsp; &amp;nbsp;&amp;amp;&amp;amp;((shipments.checked.length &amp;amp;&amp;amp; amountDeliveredShipments &amp;lt; totalSum) &lt;br&gt;&amp;nbsp; &amp;nbsp; &amp;nbsp;|| !shipments&lt;span style=&quot;border: 0px solid rgb(217, 217, 227); box-sizing: border-box; --tw-border-spacing-x: 0; --tw-border-spacing-y: 0; --tw-translate-x: 0; --tw-translate-y: 0; --tw-rotate: 0; --tw-skew-x: 0; --tw-skew-y: 0; --tw-scale-x: 1; --tw-scale-y: 1; --tw-pan-x: ; --tw-pan-y: ; --tw-pinch-zoom: ; --tw-scroll-snap-strictness: proximity; --tw-gradient-from-position: ; --tw-gradient-via-position: ; --tw-gradient-to-position: ; --tw-ordinal: ; --tw-slashed-zero: ; --tw-numeric-figure: ; --tw-numeric-spacing: ; --tw-numeric-fraction: ; --tw-ring-inset: ; --tw-ring-offset-width: 0px; --tw-ring-offset-color: #fff; --tw-ring-color: rgba(69,89,164,.5); --tw-ring-offset-shadow: 0 0 transparent; --tw-ring-shadow: 0 0 transparent; --tw-shadow: 0 0 transparent; --tw-shadow-colored: 0 0 transparent; --tw-blur: ; --tw-brightness: ; --tw-contrast: ; --tw-grayscale: ; --tw-hue-rotate: ; --tw-invert: ; --tw-saturate: ; --tw-sepia: ; --tw-drop-shadow: ; --tw-backdrop-blur: ; --tw-backdrop-brightness: ; --tw-backdrop-contrast: ; --tw-backdrop-grayscale: ; --tw-backdrop-hue-rotate: ; --tw-backdrop-invert: ; --tw-backdrop-opacity: ; --tw-backdrop-saturate: ; --tw-backdrop-sepia: ; color: rgb(223, 48, 121); font-family: &amp;quot;Söhne Mono&amp;quot;, Monaco, &amp;quot;Andale Mono&amp;quot;, &amp;quot;Ubuntu Mono&amp;quot;, monospace; font-size: 14px; background-color: rgb(0, 0, 0);&quot; class=&quot;hljs-selector-class&quot;&gt;.checked&lt;/span&gt;&lt;span style=&quot;border: 0px solid rgb(217, 217, 227); box-sizing: border-box; --tw-border-spacing-x: 0; --tw-border-spacing-y: 0; --tw-translate-x: 0; --tw-translate-y: 0; --tw-rotate: 0; --tw-skew-x: 0; --tw-skew-y: 0; --tw-scale-x: 1; --tw-scale-y: 1; --tw-pan-x: ; --tw-pan-y: ; --tw-pinch-zoom: ; --tw-scroll-snap-strictness: proximity; --tw-gradient-from-position: ; --tw-gradient-via-position: ; --tw-gradient-to-position: ; --tw-ordinal: ; --tw-slashed-zero: ; --tw-numeric-figure: ; --tw-numeric-spacing: ; --tw-numeric-fraction: ; --tw-ring-inset: ; --tw-ring-offset-width: 0px; --tw-ring-offset-color: #fff; --tw-ring-color: rgba(69,89,164,.5); --tw-ring-offset-shadow: 0 0 transparent; --tw-ring-shadow: 0 0 transparent; --tw-shadow: 0 0 transparent; --tw-shadow-colored: 0 0 transparent; --tw-blur: ; --tw-brightness: ; --tw-contrast: ; --tw-grayscale: ; --tw-hue-rotate: ; --tw-invert: ; --tw-saturate: ; --tw-sepia: ; --tw-drop-shadow: ; --tw-backdrop-blur: ; --tw-backdrop-brightness: ; --tw-backdrop-contrast: ; --tw-backdrop-grayscale: ; --tw-backdrop-hue-rotate: ; --tw-backdrop-invert: ; --tw-backdrop-opacity: ; --tw-backdrop-saturate: ; --tw-backdrop-sepia: ; color: rgb(223, 48, 121); font-family: &amp;quot;Söhne Mono&amp;quot;, Monaco, &amp;quot;Andale Mono&amp;quot;, &amp;quot;Ubuntu Mono&amp;quot;, monospace; font-size: 14px; background-color: rgb(0, 0, 0);&quot; class=&quot;hljs-selector-class&quot;&gt;.length&lt;/span&gt;&lt;span style=&quot;color: rgb(255, 255, 255); font-family: &amp;quot;Söhne Mono&amp;quot;, Monaco, &amp;quot;Andale Mono&amp;quot;, &amp;quot;Ubuntu Mono&amp;quot;, monospace; font-size: 14px; background-color: rgb(0, 0, 0);&quot;&gt;))&lt;br&gt;)&lt;/span&gt;&lt;br&gt;&lt;/li&gt;&lt;/ol&gt;" style="rounded=1;whiteSpace=wrap;html=1;align=left;" parent="1" vertex="1">
          <mxGeometry x="-1200" y="660" width="690" height="260" as="geometry" />
        </mxCell>
        <mxCell id="9Bqs3EJ7gLQhbPDYS--e-26" value="&lt;ol&gt;&lt;li&gt;is_required_on_success&amp;nbsp; &lt;br&gt;&amp;amp;&amp;amp;&amp;nbsp; is_partial_pickup &lt;br&gt;&amp;amp;&amp;amp; shipments.checked.length&lt;br&gt;&lt;/li&gt;&lt;li&gt;is_required_on_cancel &lt;br&gt;&amp;amp;&amp;amp; !shipments.checked.length&lt;br&gt;&lt;/li&gt;&lt;li&gt;1 пункт || 2 пункт&lt;/li&gt;&lt;/ol&gt;" style="rounded=1;whiteSpace=wrap;html=1;align=left;" parent="1" vertex="1">
          <mxGeometry x="-262.75" y="510" width="224.5" height="120" as="geometry" />
        </mxCell>
        <mxCell id="9Bqs3EJ7gLQhbPDYS--e-54" style="edgeStyle=orthogonalEdgeStyle;rounded=0;orthogonalLoop=1;jettySize=auto;html=1;exitX=0.5;exitY=1;exitDx=0;exitDy=0;entryX=1;entryY=0.5;entryDx=0;entryDy=0;entryPerimeter=0;" parent="1" source="9Bqs3EJ7gLQhbPDYS--e-27" target="9Bqs3EJ7gLQhbPDYS--e-47" edge="1">
          <mxGeometry relative="1" as="geometry">
            <mxPoint x="-270" y="790" as="targetPoint" />
            <Array as="points">
              <mxPoint x="110" y="423" />
              <mxPoint x="110" y="790" />
            </Array>
          </mxGeometry>
        </mxCell>
        <mxCell id="9Bqs3EJ7gLQhbPDYS--e-55" value="YES" style="edgeLabel;html=1;align=center;verticalAlign=middle;resizable=0;points=[];" parent="9Bqs3EJ7gLQhbPDYS--e-54" vertex="1" connectable="0">
          <mxGeometry x="-0.6" y="-1" relative="1" as="geometry">
            <mxPoint as="offset" />
          </mxGeometry>
        </mxCell>
        <mxCell id="9Bqs3EJ7gLQhbPDYS--e-56" style="edgeStyle=orthogonalEdgeStyle;rounded=0;orthogonalLoop=1;jettySize=auto;html=1;exitX=0.5;exitY=0;exitDx=0;exitDy=0;entryX=1;entryY=0.5;entryDx=0;entryDy=0;entryPerimeter=0;" parent="1" source="9Bqs3EJ7gLQhbPDYS--e-27" target="9Bqs3EJ7gLQhbPDYS--e-32" edge="1">
          <mxGeometry relative="1" as="geometry" />
        </mxCell>
        <mxCell id="9Bqs3EJ7gLQhbPDYS--e-57" value="NO" style="edgeLabel;html=1;align=center;verticalAlign=middle;resizable=0;points=[];" parent="9Bqs3EJ7gLQhbPDYS--e-56" vertex="1" connectable="0">
          <mxGeometry x="-0.8043" y="3" relative="1" as="geometry">
            <mxPoint x="3" y="4" as="offset" />
          </mxGeometry>
        </mxCell>
        <mxCell id="9Bqs3EJ7gLQhbPDYS--e-27" value="&lt;ol&gt;&lt;li&gt;!1пункт || !2пункт || 3пункт&lt;/li&gt;&lt;/ol&gt;" style="rounded=1;whiteSpace=wrap;html=1;align=left;" parent="1" vertex="1">
          <mxGeometry x="10" y="362.5" width="210" height="60" as="geometry" />
        </mxCell>
        <mxCell id="9Bqs3EJ7gLQhbPDYS--e-32" value="idle" style="strokeWidth=2;html=1;shape=mxgraph.flowchart.start_1;whiteSpace=wrap;" parent="1" vertex="1">
          <mxGeometry x="-480" y="230" width="100" height="60" as="geometry" />
        </mxCell>
        <mxCell id="9Bqs3EJ7gLQhbPDYS--e-44" value="" style="endArrow=classic;html=1;rounded=0;exitX=0;exitY=0.5;exitDx=0;exitDy=0;entryX=1;entryY=0.5;entryDx=0;entryDy=0;" parent="1" source="9Bqs3EJ7gLQhbPDYS--e-3" target="9Bqs3EJ7gLQhbPDYS--e-10" edge="1">
          <mxGeometry width="50" height="50" relative="1" as="geometry">
            <mxPoint x="-610" y="412" as="sourcePoint" />
            <mxPoint x="-560" y="362" as="targetPoint" />
          </mxGeometry>
        </mxCell>
        <mxCell id="9Bqs3EJ7gLQhbPDYS--e-45" value="YES" style="edgeLabel;html=1;align=center;verticalAlign=middle;resizable=0;points=[];" parent="9Bqs3EJ7gLQhbPDYS--e-44" vertex="1" connectable="0">
          <mxGeometry x="-0.2" y="2" relative="1" as="geometry">
            <mxPoint x="-8" y="-3" as="offset" />
          </mxGeometry>
        </mxCell>
        <mxCell id="9Bqs3EJ7gLQhbPDYS--e-47" value="completed" style="strokeWidth=2;html=1;shape=mxgraph.flowchart.start_1;whiteSpace=wrap;" parent="1" vertex="1">
          <mxGeometry x="-480" y="760" width="100" height="60" as="geometry" />
        </mxCell>
        <mxCell id="9Bqs3EJ7gLQhbPDYS--e-51" value="" style="endArrow=classic;html=1;rounded=0;exitX=0.5;exitY=1;exitDx=0;exitDy=0;" parent="1" source="9Bqs3EJ7gLQhbPDYS--e-26" edge="1">
          <mxGeometry width="50" height="50" relative="1" as="geometry">
            <mxPoint x="-440" y="590" as="sourcePoint" />
            <mxPoint x="-380" y="790" as="targetPoint" />
            <Array as="points">
              <mxPoint x="-150" y="790" />
            </Array>
          </mxGeometry>
        </mxCell>
        <mxCell id="9Bqs3EJ7gLQhbPDYS--e-63" value="" style="edgeStyle=orthogonalEdgeStyle;rounded=0;orthogonalLoop=1;jettySize=auto;html=1;exitX=0;exitY=0.5;exitDx=0;exitDy=0;entryX=1;entryY=0.5;entryDx=0;entryDy=0;" parent="1" target="9Bqs3EJ7gLQhbPDYS--e-73" edge="1">
          <mxGeometry relative="1" as="geometry">
            <mxPoint x="-780" y="392.5" as="sourcePoint" />
            <mxPoint x="-920" y="393" as="targetPoint" />
          </mxGeometry>
        </mxCell>
        <mxCell id="9Bqs3EJ7gLQhbPDYS--e-64" value="NO" style="edgeLabel;html=1;align=center;verticalAlign=middle;resizable=0;points=[];" parent="9Bqs3EJ7gLQhbPDYS--e-63" vertex="1" connectable="0">
          <mxGeometry x="-0.3" y="3" relative="1" as="geometry">
            <mxPoint x="-13" y="-3" as="offset" />
          </mxGeometry>
        </mxCell>
        <mxCell id="9Bqs3EJ7gLQhbPDYS--e-67" value="" style="edgeStyle=orthogonalEdgeStyle;rounded=0;orthogonalLoop=1;jettySize=auto;html=1;" parent="1" source="9Bqs3EJ7gLQhbPDYS--e-66" target="9Bqs3EJ7gLQhbPDYS--e-25" edge="1">
          <mxGeometry relative="1" as="geometry" />
        </mxCell>
        <mxCell id="9Bqs3EJ7gLQhbPDYS--e-71" value="YES" style="edgeLabel;html=1;align=center;verticalAlign=middle;resizable=0;points=[];" parent="9Bqs3EJ7gLQhbPDYS--e-67" vertex="1" connectable="0">
          <mxGeometry x="-0.34" relative="1" as="geometry">
            <mxPoint x="1" y="-15" as="offset" />
          </mxGeometry>
        </mxCell>
        <mxCell id="9Bqs3EJ7gLQhbPDYS--e-69" value="" style="edgeStyle=orthogonalEdgeStyle;rounded=0;orthogonalLoop=1;jettySize=auto;html=1;" parent="1" source="9Bqs3EJ7gLQhbPDYS--e-66" target="9Bqs3EJ7gLQhbPDYS--e-21" edge="1">
          <mxGeometry relative="1" as="geometry" />
        </mxCell>
        <mxCell id="9Bqs3EJ7gLQhbPDYS--e-70" value="NO" style="edgeLabel;html=1;align=center;verticalAlign=middle;resizable=0;points=[];" parent="9Bqs3EJ7gLQhbPDYS--e-69" vertex="1" connectable="0">
          <mxGeometry x="-0.1176" relative="1" as="geometry">
            <mxPoint x="1" as="offset" />
          </mxGeometry>
        </mxCell>
        <mxCell id="9Bqs3EJ7gLQhbPDYS--e-66" value="ВЫПОЛНЕНО/НЕВЫПОЛНЕНО" style="strokeWidth=2;html=1;shape=mxgraph.flowchart.decision;whiteSpace=wrap;" parent="1" vertex="1">
          <mxGeometry x="-845" y="510" width="250" height="100" as="geometry" />
        </mxCell>
        <mxCell id="9Bqs3EJ7gLQhbPDYS--e-72" value="" style="endArrow=classic;html=1;rounded=0;entryX=0.5;entryY=0;entryDx=0;entryDy=0;entryPerimeter=0;exitX=0;exitY=0.5;exitDx=0;exitDy=0;" parent="1" source="9Bqs3EJ7gLQhbPDYS--e-21" target="9Bqs3EJ7gLQhbPDYS--e-32" edge="1">
          <mxGeometry width="50" height="50" relative="1" as="geometry">
            <mxPoint x="-1360" y="476" as="sourcePoint" />
            <mxPoint x="-725" y="270" as="targetPoint" />
            <Array as="points">
              <mxPoint x="-1360" y="560" />
              <mxPoint x="-1360" y="120" />
              <mxPoint x="-1040" y="120" />
              <mxPoint x="-430" y="120" />
            </Array>
          </mxGeometry>
        </mxCell>
        <mxCell id="9Bqs3EJ7gLQhbPDYS--e-73" value="&lt;ol&gt;&lt;li&gt;!&amp;nbsp;is_required_on_success &amp;amp;&amp;amp;&amp;nbsp; !&amp;nbsp;is_required_on_cancel&lt;/li&gt;&lt;/ol&gt;" style="rounded=1;whiteSpace=wrap;html=1;align=left;" parent="1" vertex="1">
          <mxGeometry x="-1300" y="363.75" width="370" height="58.75" as="geometry" />
        </mxCell>
        <mxCell id="9Bqs3EJ7gLQhbPDYS--e-74" value="" style="endArrow=classic;html=1;rounded=0;entryX=0;entryY=0.5;entryDx=0;entryDy=0;entryPerimeter=0;" parent="1" edge="1">
          <mxGeometry width="50" height="50" relative="1" as="geometry">
            <mxPoint x="-1120" y="360" as="sourcePoint" />
            <mxPoint x="-489" y="260" as="targetPoint" />
            <Array as="points">
              <mxPoint x="-1120" y="260" />
              <mxPoint x="-1049" y="260" />
            </Array>
          </mxGeometry>
        </mxCell>
      </root>
    </mxGraphModel>
  </diagram>
</mxfile>
